# xmcd
#
# Track frame offsets: 
#        150
#        14403
#        32766
#        59717
#        83109
#        102193
#        116793
#        139438
#        163325
#        197567
#
# Disc length: 2856 seconds
#
# Revision: 2
# Processed by: cddbd v1.5.2PL0 Copyright (c) Steve Scherf et al.
# Submitted via: ExactAudioCopy v1.0b1
#
DISCID=900b260a
DTITLE=Noah Shull and Steve Frye - Front Porch Revival
DYEAR=2010
DGENRE=Blues
TTITLE0=Hollerin' Blues
TTITLE1=Preachin' Blues (Up Jumped The Devil)
TTITLE2=Jitterbug Swing
TTITLE3=BlackSnake Crawl
TTITLE4=Terraplane Blues
TTITLE5=I Am The Light Of This World
TTITLE6=Pony Blues
TTITLE7=Death Letter Blues
TTITLE8=Preaching Blues
TTITLE9=Walking Down The Road At Night
EXTD=
EXTT0=
EXTT1=
EXTT2=
EXTT3=
EXTT4=
EXTT5=
EXTT6=
EXTT7=
EXTT8=
EXTT9=
PLAYORDER=
